<svg width="200" height="200" viewBox="0 0 200 200" fill="none" xmlns="http://www.w3.org/2000/svg">
<g clip-path="url(#clip0_2_109)">
<rect width="200" height="200" fill="white"/>
<rect x="12.5" y="12.5" width="175" height="175" stroke="white" stroke-width="25"/>
<path d="M65.123 84.96C60.899 84.96 57.187 83.968 53.987 81.984C50.787 79.936 48.291 77.024 46.499 73.248C44.707 69.472 43.811 64.96 43.811 59.712C43.811 54.464 44.707 49.984 46.499 46.272C48.291 42.496 50.787 39.616 53.987 37.632C57.187 35.584 60.899 34.56 65.123 34.56C69.219 34.56 72.803 35.584 75.875 37.632C79.011 39.616 81.091 42.304 82.115 45.696H81.059L82.115 35.52H93.635C93.443 37.504 93.251 39.52 93.059 41.568C92.931 43.616 92.867 45.632 92.867 47.616V84H80.963L80.867 74.016H82.019C80.995 77.344 78.915 80 75.779 81.984C72.643 83.968 69.091 84.96 65.123 84.96ZM68.483 75.744C72.259 75.744 75.299 74.432 77.603 71.808C79.907 69.12 81.059 65.088 81.059 59.712C81.059 54.336 79.907 50.336 77.603 47.712C75.299 45.088 72.259 43.776 68.483 43.776C64.707 43.776 61.667 45.088 59.363 47.712C57.059 50.336 55.907 54.336 55.907 59.712C55.907 65.088 57.027 69.12 59.267 71.808C61.571 74.432 64.643 75.744 68.483 75.744ZM128.398 105.504C123.918 105.504 119.854 105.024 116.206 104.064C112.622 103.104 109.422 101.632 106.606 99.648L109.198 91.008C111.054 92.224 112.974 93.216 114.958 93.984C116.942 94.752 118.99 95.328 121.102 95.712C123.214 96.096 125.358 96.288 127.534 96.288C132.014 96.288 135.342 95.168 137.518 92.928C139.758 90.752 140.878 87.616 140.878 83.52V71.904H141.838C140.814 75.232 138.734 77.888 135.598 79.872C132.526 81.856 128.974 82.848 124.942 82.848C120.59 82.848 116.782 81.888 113.518 79.968C110.318 77.984 107.822 75.168 106.03 71.52C104.238 67.872 103.342 63.584 103.342 58.656C103.342 53.728 104.238 49.472 106.03 45.888C107.822 42.24 110.318 39.456 113.518 37.536C116.782 35.552 120.59 34.56 124.942 34.56C129.038 34.56 132.59 35.552 135.598 37.536C138.67 39.456 140.718 42.08 141.742 45.408L140.878 44.832L141.838 35.52H153.454C153.198 37.504 153.006 39.52 152.878 41.568C152.75 43.616 152.686 45.632 152.686 47.616V82.08C152.686 89.696 150.606 95.488 146.446 99.456C142.35 103.488 136.334 105.504 128.398 105.504ZM128.206 73.632C132.046 73.632 135.086 72.352 137.326 69.792C139.63 67.168 140.782 63.456 140.782 58.656C140.782 53.856 139.63 50.176 137.326 47.616C135.086 45.056 132.046 43.776 128.206 43.776C124.302 43.776 121.198 45.056 118.894 47.616C116.59 50.176 115.438 53.856 115.438 58.656C115.438 63.456 116.59 67.168 118.894 69.792C121.198 72.352 124.302 73.632 128.206 73.632ZM47.3405 164V127.616C47.3405 125.632 47.2765 123.616 47.1485 121.568C47.0205 119.52 46.8285 117.504 46.5725 115.52H58.1885L59.1485 125.12H57.9965C59.5325 121.728 61.8045 119.136 64.8125 117.344C67.8205 115.488 71.3085 114.56 75.2765 114.56C80.9725 114.56 85.2605 116.16 88.1405 119.36C91.0205 122.56 92.4605 127.552 92.4605 134.336V164H80.4605V134.912C80.4605 131.008 79.6925 128.224 78.1565 126.56C76.6845 124.832 74.4445 123.968 71.4365 123.968C67.7245 123.968 64.7805 125.12 62.6045 127.424C60.4285 129.728 59.3405 132.8 59.3405 136.64V164H47.3405ZM123.904 164.96C119.68 164.96 115.968 163.968 112.768 161.984C109.568 159.936 107.072 157.024 105.28 153.248C103.488 149.472 102.592 144.96 102.592 139.712C102.592 134.464 103.488 129.984 105.28 126.272C107.072 122.496 109.568 119.616 112.768 117.632C115.968 115.584 119.68 114.56 123.904 114.56C128 114.56 131.584 115.584 134.656 117.632C137.792 119.616 139.872 122.304 140.896 125.696H139.84L140.896 115.52H152.416C152.224 117.504 152.032 119.52 151.84 121.568C151.712 123.616 151.648 125.632 151.648 127.616V164H139.744L139.648 154.016H140.8C139.776 157.344 137.696 160 134.56 161.984C131.424 163.968 127.872 164.96 123.904 164.96ZM127.264 155.744C131.04 155.744 134.08 154.432 136.384 151.808C138.688 149.12 139.84 145.088 139.84 139.712C139.84 134.336 138.688 130.336 136.384 127.712C134.08 125.088 131.04 123.776 127.264 123.776C123.488 123.776 120.448 125.088 118.144 127.712C115.84 130.336 114.688 134.336 114.688 139.712C114.688 145.088 115.808 149.12 118.048 151.808C120.352 154.432 123.424 155.744 127.264 155.744Z" fill="white"/>
</g>
<defs>
<clipPath id="clip0_2_109">
<rect width="200" height="200" fill="white"/>
</clipPath>
</defs>
</svg>
